ISO-10303-21;
HEADER;
FILE_DESCRIPTION (( 'STEP AP214' ),
    '1' );
FILE_NAME ('3D_v0.STEP',
    '2026-01-02T20:27:01',
    ( '' ),
    ( '' ),
    'SwSTEP 2.0',
    'SolidWorks 2025',
    '' );
FILE_SCHEMA (( 'AUTOMOTIVE_DESIGN' ));
ENDSEC;

DATA;
#1 = FACE_BOUND ( 'NONE', #272, .T. ) ;
#2 = VECTOR ( 'NONE', #57, 100.0000000000000000 ) ;
#3 = PLANE ( 'NONE',  #155 ) ;
#4 = CARTESIAN_POINT ( 'NONE',  ( -29.99999999999998224, -129.9999999999999716, 110.0000000000000142 ) ) ;
#5 = LINE ( 'NONE', #157, #267 ) ;
#6 = ADVANCED_FACE ( 'NONE', ( #150 ), #105, .F. ) ;
#7 = STYLED_ITEM ( 'NONE', ( #290 ), #189 ) ;
#8 = PLANE ( 'NONE',  #204 ) ;
#9 = CARTESIAN_POINT ( 'NONE',  ( 29.99999999999998224, 130.0000000000000284, 110.0000000000000142 ) ) ;
#10 = ORIENTED_EDGE ( 'NONE', *, *, #305, .F. ) ;
#11 = EDGE_CURVE ( 'NONE', #232, #47, #81, .T. ) ;
#12 = LINE ( 'NONE', #293, #226 ) ;
#13 = ORIENTED_EDGE ( 'NONE', *, *, #51, .T. ) ;
#14 = PLANE ( 'NONE',  #32 ) ;
#15 = VECTOR ( 'NONE', #77, 100.0000000000000000 ) ;
#16 = ORIENTED_EDGE ( 'NONE', *, *, #208, .F. ) ;
#17 = DIRECTION ( 'NONE',  ( 0.000000000000000000, 0.000000000000000000, -1.000000000000000000 ) ) ;
#18 = ORIENTED_EDGE ( 'NONE', *, *, #113, .T. ) ;
#19 = LINE ( 'NONE', #319, #37 ) ;
#20 = VERTEX_POINT ( 'NONE', #73 ) ;
#21 = EDGE_CURVE ( 'NONE', #171, #250, #184, .T. ) ;
#22 = PRODUCT_DEFINITION_CONTEXT ( 'detailed design', #172, 'design' ) ;
#23 = ORIENTED_EDGE ( 'NONE', *, *, #223, .F. ) ;
#24 = VECTOR ( 'NONE', #288, 100.0000000000000000 ) ;
#25 = ADVANCED_BREP_SHAPE_REPRESENTATION ( '3D_v0', ( #189, #214 ), #241 ) ;
#26 = DIRECTION ( 'NONE',  ( 1.000000000000000000, -0.000000000000000000, -0.000000000000000000 ) ) ;
#27 = LINE ( 'NONE', #229, #95 ) ;
#28 = VERTEX_POINT ( 'NONE', #148 ) ;
#29 = LINE ( 'NONE', #201, #304 ) ;
#30 = CARTESIAN_POINT ( 'NONE',  ( 30.00000000000001421, -129.9999999999999716, 0.000000000000000000 ) ) ;
#31 = PLANE ( 'NONE',  #82 ) ;
#32 = AXIS2_PLACEMENT_3D ( 'NONE', #164, #292, #123 ) ;
#33 = CARTESIAN_POINT ( 'NONE',  ( 4.999999999999958256, -79.99999999999998579, 10.00000000000000000 ) ) ;
#34 = EDGE_CURVE ( 'NONE', #171, #300, #27, .T. ) ;
#35 = DIRECTION ( 'NONE',  ( -1.000000000000000000, 0.000000000000000000, 0.000000000000000000 ) ) ;
#36 = DIRECTION ( 'NONE',  ( -0.000000000000000000, -0.000000000000000000, -1.000000000000000000 ) ) ;
#37 = VECTOR ( 'NONE', #191, 100.0000000000000000 ) ;
#38 = CARTESIAN_POINT ( 'NONE',  ( -5.000000000000040856, -69.99999999999998579, 10.00000000000000000 ) ) ;
#39 = EDGE_CURVE ( 'NONE', #47, #20, #233, .T. ) ;
#40 =( NAMED_UNIT ( * ) SI_UNIT ( $, .STERADIAN. ) SOLID_ANGLE_UNIT ( ) );
#41 = EDGE_LOOP ( 'NONE', ( #317, #115, #169, #206 ) ) ;
#42 = DIRECTION ( 'NONE',  ( -0.000000000000000000, -0.000000000000000000, -1.000000000000000000 ) ) ;
#43 = ORIENTED_EDGE ( 'NONE', *, *, #46, .T. ) ;
#44 = CARTESIAN_POINT ( 'NONE',  ( -5.000000000000040856, -69.99999999999998579, 0.000000000000000000 ) ) ;
#45 = FACE_OUTER_BOUND ( 'NONE', #96, .T. ) ;
#46 = EDGE_CURVE ( 'NONE', #127, #291, #328, .T. ) ;
#47 = VERTEX_POINT ( 'NONE', #302 ) ;
#48 = ORIENTED_EDGE ( 'NONE', *, *, #138, .F. ) ;
#49 = ORIENTED_EDGE ( 'NONE', *, *, #138, .T. ) ;
#50 = AXIS2_PLACEMENT_3D ( 'NONE', #185, #212, #59 ) ;
#51 = EDGE_CURVE ( 'NONE', #75, #70, #55, .T. ) ;
#52 = CARTESIAN_POINT ( 'NONE',  ( 4.999999999999958256, -79.99999999999998579, 10.00000000000000000 ) ) ;
#53 = CARTESIAN_POINT ( 'NONE',  ( 29.99999999999998224, 130.0000000000000284, 0.000000000000000000 ) ) ;
#54 =( LENGTH_UNIT ( ) NAMED_UNIT ( * ) SI_UNIT ( .CENTI., .METRE. ) );
#55 = LINE ( 'NONE', #154, #209 ) ;
#56 = VECTOR ( 'NONE', #143, 100.0000000000000000 ) ;
#57 = DIRECTION ( 'NONE',  ( 1.281026566875180510E-16, -1.000000000000000000, 0.000000000000000000 ) ) ;
#58 = EDGE_CURVE ( 'NONE', #218, #75, #29, .T. ) ;
#59 = DIRECTION ( 'NONE',  ( -1.281026566875180510E-16, 1.000000000000000000, 0.000000000000000000 ) ) ;
#60 = CARTESIAN_POINT ( 'NONE',  ( 29.99999999999998224, 130.0000000000000284, 110.0000000000000142 ) ) ;
#61 = EDGE_CURVE ( 'NONE', #202, #127, #227, .T. ) ;
#62 = FILL_AREA_STYLE ('',( #287 ) ) ;
#63 = SURFACE_STYLE_FILL_AREA ( #62 ) ;
#64 = CARTESIAN_POINT ( 'NONE',  ( 29.99999999999998224, 130.0000000000000284, 0.000000000000000000 ) ) ;
#65 = PRESENTATION_LAYER_ASSIGNMENT (  '', '', ( #7 ) ) ;
#66 = CARTESIAN_POINT ( 'NONE',  ( -5.000000000000040856, -69.99999999999998579, 10.00000000000000000 ) ) ;
#67 = EDGE_LOOP ( 'NONE', ( #221, #255, #167, #323 ) ) ;
#68 = ADVANCED_FACE ( 'NONE', ( #1, #285 ), #286, .F. ) ;
#69 = LINE ( 'NONE', #114, #134 ) ;
#70 = VERTEX_POINT ( 'NONE', #87 ) ;
#71 = CARTESIAN_POINT ( 'NONE',  ( -5.000000000000040856, -69.99999999999998579, 0.000000000000000000 ) ) ;
#72 = VERTEX_POINT ( 'NONE', #88 ) ;
#73 = CARTESIAN_POINT ( 'NONE',  ( 4.999999999999960032, -69.99999999999998579, 0.000000000000000000 ) ) ;
#74 = ADVANCED_FACE ( 'NONE', ( #137 ), #213, .F. ) ;
#75 = VERTEX_POINT ( 'NONE', #136 ) ;
#76 = VECTOR ( 'NONE', #220, 100.0000000000000000 ) ;
#77 = DIRECTION ( 'NONE',  ( 1.387778780781445922E-16, 1.000000000000000000, -0.000000000000000000 ) ) ;
#78 = EDGE_LOOP ( 'NONE', ( #244, #281, #320, #13 ) ) ;
#79 =( NAMED_UNIT ( * ) SI_UNIT ( $, .STERADIAN. ) SOLID_ANGLE_UNIT ( ) );
#80 = ORIENTED_EDGE ( 'NONE', *, *, #39, .F. ) ;
#81 = LINE ( 'NONE', #207, #327 ) ;
#82 = AXIS2_PLACEMENT_3D ( 'NONE', #135, #108, #238 ) ;
#83 = PRODUCT ( '3D_v0', '3D_v0', '', ( #301 ) ) ;
#84 = DIRECTION ( 'NONE',  ( 0.000000000000000000, 0.000000000000000000, 1.000000000000000000 ) ) ;
#85 = FACE_OUTER_BOUND ( 'NONE', #198, .T. ) ;
#86 = LINE ( 'NONE', #264, #194 ) ;
#87 = CARTESIAN_POINT ( 'NONE',  ( -30.00000000000001421, 130.0000000000000284, 0.000000000000000000 ) ) ;
#88 = CARTESIAN_POINT ( 'NONE',  ( -29.99999999999998224, -129.9999999999999716, 0.000000000000000000 ) ) ;
#89 = ORIENTED_EDGE ( 'NONE', *, *, #113, .F. ) ;
#90 = AXIS2_PLACEMENT_3D ( 'NONE', #256, #183, #279 ) ;
#91 = LINE ( 'NONE', #116, #56 ) ;
#92 = FACE_OUTER_BOUND ( 'NONE', #295, .T. ) ;
#93 = ORIENTED_EDGE ( 'NONE', *, *, #223, .T. ) ;
#94 = ORIENTED_EDGE ( 'NONE', *, *, #315, .T. ) ;
#95 = VECTOR ( 'NONE', #230, 100.0000000000000000 ) ;
#96 = EDGE_LOOP ( 'NONE', ( #217, #129, #141, #274 ) ) ;
#97 = ADVANCED_FACE ( 'NONE', ( #106 ), #8, .F. ) ;
#98 = SHAPE_DEFINITION_REPRESENTATION ( #156, #25 ) ;
#99 = ORIENTED_EDGE ( 'NONE', *, *, #237, .T. ) ;
#100 = ORIENTED_EDGE ( 'NONE', *, *, #162, .F. ) ;
#101 = DIRECTION ( 'NONE',  ( -0.000000000000000000, -0.000000000000000000, -1.000000000000000000 ) ) ;
#102 = VECTOR ( 'NONE', #42, 100.0000000000000000 ) ;
#103 = DIRECTION ( 'NONE',  ( -1.281026566875180510E-16, 1.000000000000000000, -0.000000000000000000 ) ) ;
#104 = EDGE_CURVE ( 'NONE', #277, #202, #210, .T. ) ;
#105 = PLANE ( 'NONE',  #90 ) ;
#106 = FACE_OUTER_BOUND ( 'NONE', #147, .T. ) ;
#107 = EDGE_CURVE ( 'NONE', #218, #291, #132, .T. ) ;
#108 = DIRECTION ( 'NONE',  ( -0.000000000000000000, 0.000000000000000000, 1.000000000000000000 ) ) ;
#109 = DIRECTION ( 'NONE',  ( 0.000000000000000000, 1.000000000000000000, 0.000000000000000000 ) ) ;
#110 = PLANE ( 'NONE',  #199 ) ;
#111 = CLOSED_SHELL ( 'NONE', ( #252, #268, #74, #180, #175, #68, #6, #193, #97, #120, #200 ) ) ;
#112 = DIRECTION ( 'NONE',  ( -0.000000000000000000, 0.000000000000000000, 1.000000000000000000 ) ) ;
#113 = EDGE_CURVE ( 'NONE', #250, #28, #215, .T. ) ;
#114 = CARTESIAN_POINT ( 'NONE',  ( 4.999999999999960032, -69.99999999999998579, 10.00000000000000000 ) ) ;
#115 = ORIENTED_EDGE ( 'NONE', *, *, #258, .F. ) ;
#116 = CARTESIAN_POINT ( 'NONE',  ( -5.000000000000040856, -69.99999999999998579, 10.00000000000000000 ) ) ;
#117 = ORIENTED_EDGE ( 'NONE', *, *, #237, .F. ) ;
#118 = VECTOR ( 'NONE', #248, 100.0000000000000000 ) ;
#119 = CARTESIAN_POINT ( 'NONE',  ( -29.99999999999998224, -129.9999999999999716, 0.000000000000000000 ) ) ;
#120 = ADVANCED_FACE ( 'NONE', ( #85 ), #312, .F. ) ;
#121 = ORIENTED_EDGE ( 'NONE', *, *, #61, .T. ) ;
#122 = CARTESIAN_POINT ( 'NONE',  ( -30.00000000000001421, 130.0000000000000284, 110.0000000000000142 ) ) ;
#123 = DIRECTION ( 'NONE',  ( 1.281026566875180510E-16, -1.000000000000000000, 0.000000000000000000 ) ) ;
#124 = ORIENTED_EDGE ( 'NONE', *, *, #58, .T. ) ;
#125 = VECTOR ( 'NONE', #161, 100.0000000000000000 ) ;
#126 = ORIENTED_EDGE ( 'NONE', *, *, #107, .F. ) ;
#127 = VERTEX_POINT ( 'NONE', #30 ) ;
#128 = EDGE_LOOP ( 'NONE', ( #174, #124, #225, #131 ) ) ;
#129 = ORIENTED_EDGE ( 'NONE', *, *, #51, .F. ) ;
#130 = EDGE_CURVE ( 'NONE', #75, #277, #186, .T. ) ;
#131 = ORIENTED_EDGE ( 'NONE', *, *, #104, .T. ) ;
#132 = LINE ( 'NONE', #60, #294 ) ;
#133 = FACE_OUTER_BOUND ( 'NONE', #67, .T. ) ;
#134 = VECTOR ( 'NONE', #195, 100.0000000000000000 ) ;
#135 = CARTESIAN_POINT ( 'NONE',  ( 0.000000000000000000, 0.000000000000000000, 110.0000000000000142 ) ) ;
#136 = CARTESIAN_POINT ( 'NONE',  ( -30.00000000000001421, 130.0000000000000284, 110.0000000000000142 ) ) ;
#137 = FACE_OUTER_BOUND ( 'NONE', #78, .T. ) ;
#138 = EDGE_CURVE ( 'NONE', #300, #28, #236, .T. ) ;
#139 = PRODUCT_DEFINITION_FORMATION_WITH_SPECIFIED_SOURCE ( 'ANY', '', #83, .NOT_KNOWN. ) ;
#140 = PLANE ( 'NONE',  #149 ) ;
#141 = ORIENTED_EDGE ( 'NONE', *, *, #58, .F. ) ;
#142 = DIRECTION ( 'NONE',  ( -1.000000000000000000, 0.000000000000000000, 0.000000000000000000 ) ) ;
#143 = DIRECTION ( 'NONE',  ( -0.000000000000000000, -0.000000000000000000, -1.000000000000000000 ) ) ;
#144 = ORIENTED_EDGE ( 'NONE', *, *, #34, .T. ) ;
#145 = DIRECTION ( 'NONE',  ( 1.387778780781445922E-16, 1.000000000000000000, -0.000000000000000000 ) ) ;
#146 = CARTESIAN_POINT ( 'NONE',  ( 4.999999999999960032, -69.99999999999998579, 0.000000000000000000 ) ) ;
#147 = EDGE_LOOP ( 'NONE', ( #276, #303, #23, #179 ) ) ;
#148 = CARTESIAN_POINT ( 'NONE',  ( -5.000000000000041744, -79.99999999999998579, 0.000000000000000000 ) ) ;
#149 = AXIS2_PLACEMENT_3D ( 'NONE', #269, #17, #142 ) ;
#150 = FACE_OUTER_BOUND ( 'NONE', #176, .T. ) ;
#151 = ORIENTED_EDGE ( 'NONE', *, *, #208, .T. ) ;
#152 = APPLICATION_PROTOCOL_DEFINITION ( 'draft international standard', 'automotive_design', 1998, #172 ) ;
#153 = ORIENTED_EDGE ( 'NONE', *, *, #282, .F. ) ;
#154 = CARTESIAN_POINT ( 'NONE',  ( -30.00000000000001421, 130.0000000000000284, 110.0000000000000142 ) ) ;
#155 = AXIS2_PLACEMENT_3D ( 'NONE', #4, #109, #308 ) ;
#156 = PRODUCT_DEFINITION_SHAPE ( 'NONE', 'NONE',  #326 ) ;
#157 = CARTESIAN_POINT ( 'NONE',  ( 29.99999999999998224, 130.0000000000000284, 110.0000000000000142 ) ) ;
#158 = CARTESIAN_POINT ( 'NONE',  ( 4.999999999999958256, -79.99999999999998579, 0.000000000000000000 ) ) ;
#159 = CARTESIAN_POINT ( 'NONE',  ( -5.000000000000041744, -79.99999999999998579, 10.00000000000000000 ) ) ;
#160 = AXIS2_PLACEMENT_3D ( 'NONE', #122, #247, #222 ) ;
#161 = DIRECTION ( 'NONE',  ( 1.000000000000000000, 0.000000000000000000, 0.000000000000000000 ) ) ;
#162 = EDGE_CURVE ( 'NONE', #202, #218, #5, .T. ) ;
#163 = DIRECTION ( 'NONE',  ( -0.000000000000000000, -0.000000000000000000, -1.000000000000000000 ) ) ;
#164 = CARTESIAN_POINT ( 'NONE',  ( 29.99999999999998224, 130.0000000000000284, 110.0000000000000142 ) ) ;
#165 = VECTOR ( 'NONE', #283, 100.0000000000000000 ) ;
#166 = DIRECTION ( 'NONE',  ( 0.000000000000000000, -0.000000000000000000, -1.000000000000000000 ) ) ;
#167 = ORIENTED_EDGE ( 'NONE', *, *, #104, .F. ) ;
#168 = SURFACE_STYLE_USAGE ( .BOTH. , #265 ) ;
#169 = ORIENTED_EDGE ( 'NONE', *, *, #188, .F. ) ;
#170 = DIRECTION ( 'NONE',  ( 0.000000000000000000, -1.000000000000000000, 0.000000000000000000 ) ) ;
#171 = VERTEX_POINT ( 'NONE', #33 ) ;
#172 = APPLICATION_CONTEXT ( 'automotive_design' ) ;
#173 = LINE ( 'NONE', #146, #118 ) ;
#174 = ORIENTED_EDGE ( 'NONE', *, *, #162, .T. ) ;
#175 = ADVANCED_FACE ( 'NONE', ( #259 ), #31, .T. ) ;
#176 = EDGE_LOOP ( 'NONE', ( #94, #117, #153, #18 ) ) ;
#177 = ORIENTED_EDGE ( 'NONE', *, *, #21, .T. ) ;
#178 = VECTOR ( 'NONE', #36, 100.0000000000000000 ) ;
#179 = ORIENTED_EDGE ( 'NONE', *, *, #39, .T. ) ;
#180 = ADVANCED_FACE ( 'NONE', ( #133 ), #3, .F. ) ;
#181 = ORIENTED_EDGE ( 'NONE', *, *, #21, .F. ) ;
#182 = APPLICATION_PROTOCOL_DEFINITION ( 'draft international standard', 'automotive_design', 1998, #196 ) ;
#183 = DIRECTION ( 'NONE',  ( -1.000000000000000000, 1.387778780781445922E-16, 0.000000000000000000 ) ) ;
#184 = LINE ( 'NONE', #52, #165 ) ;
#185 = CARTESIAN_POINT ( 'NONE',  ( -30.00000000000001421, 130.0000000000000284, 110.0000000000000142 ) ) ;
#186 = LINE ( 'NONE', #263, #2 ) ;
#187 = DIRECTION ( 'NONE',  ( 1.281026566875180510E-16, -1.000000000000000000, 0.000000000000000000 ) ) ;
#188 = EDGE_CURVE ( 'NONE', #70, #72, #86, .T. ) ;
#189 = MANIFOLD_SOLID_BREP ( 'Cut-Extrude1', #111 ) ;
#190 = CARTESIAN_POINT ( 'NONE',  ( 30.00000000000001421, -129.9999999999999716, 110.0000000000000142 ) ) ;
#191 = DIRECTION ( 'NONE',  ( -1.000000000000000000, -0.000000000000000000, -0.000000000000000000 ) ) ;
#192 = FACE_OUTER_BOUND ( 'NONE', #205, .T. ) ;
#193 = ADVANCED_FACE ( 'NONE', ( #192 ), #110, .F. ) ;
#194 = VECTOR ( 'NONE', #187, 100.0000000000000000 ) ;
#195 = DIRECTION ( 'NONE',  ( -1.387778780781445922E-16, -1.000000000000000000, 0.000000000000000000 ) ) ;
#196 = APPLICATION_CONTEXT ( 'automotive_design' ) ;
#197 = LINE ( 'NONE', #66, #321 ) ;
#198 = EDGE_LOOP ( 'NONE', ( #151, #80, #324, #99 ) ) ;
#199 = AXIS2_PLACEMENT_3D ( 'NONE', #224, #170, #166 ) ;
#200 = ADVANCED_FACE ( 'NONE', ( #92 ), #140, .T. ) ;
#201 = CARTESIAN_POINT ( 'NONE',  ( -30.00000000000001421, 130.0000000000000284, 110.0000000000000142 ) ) ;
#202 = VERTEX_POINT ( 'NONE', #242 ) ;
#203 = LINE ( 'NONE', #71, #15 ) ;
#204 = AXIS2_PLACEMENT_3D ( 'NONE', #306, #307, #239 ) ;
#205 = EDGE_LOOP ( 'NONE', ( #49, #89, #181, #144 ) ) ;
#206 = ORIENTED_EDGE ( 'NONE', *, *, #311, .F. ) ;
#207 = CARTESIAN_POINT ( 'NONE',  ( 4.999999999999960032, -69.99999999999998579, 10.00000000000000000 ) ) ;
#208 = EDGE_CURVE ( 'NONE', #246, #20, #12, .T. ) ;
#209 = VECTOR ( 'NONE', #257, 100.0000000000000000 ) ;
#210 = LINE ( 'NONE', #310, #125 ) ;
#211 = CARTESIAN_POINT ( 'NONE',  ( 0.000000000000000000, 0.000000000000000000, 0.000000000000000000 ) ) ;
#212 = DIRECTION ( 'NONE',  ( 1.000000000000000000, 1.281026566875180510E-16, -0.000000000000000000 ) ) ;
#213 = PLANE ( 'NONE',  #50 ) ;
#214 = AXIS2_PLACEMENT_3D ( 'NONE', #322, #280, #275 ) ;
#215 = LINE ( 'NONE', #159, #24 ) ;
#216 = LINE ( 'NONE', #119, #76 ) ;
#217 = ORIENTED_EDGE ( 'NONE', *, *, #311, .T. ) ;
#218 = VERTEX_POINT ( 'NONE', #9 ) ;
#219 = VECTOR ( 'NONE', #103, 100.0000000000000000 ) ;
#220 = DIRECTION ( 'NONE',  ( 1.000000000000000000, 0.000000000000000000, 0.000000000000000000 ) ) ;
#221 = ORIENTED_EDGE ( 'NONE', *, *, #258, .T. ) ;
#222 = DIRECTION ( 'NONE',  ( 0.000000000000000000, -0.000000000000000000, -1.000000000000000000 ) ) ;
#223 = EDGE_CURVE ( 'NONE', #47, #171, #69, .T. ) ;
#224 = CARTESIAN_POINT ( 'NONE',  ( 4.999999999999958256, -79.99999999999998579, 10.00000000000000000 ) ) ;
#225 = ORIENTED_EDGE ( 'NONE', *, *, #130, .T. ) ;
#226 = VECTOR ( 'NONE', #270, 100.0000000000000000 ) ;
#227 = LINE ( 'NONE', #190, #178 ) ;
#228 = EDGE_CURVE ( 'NONE', #277, #72, #254, .T. ) ;
#229 = CARTESIAN_POINT ( 'NONE',  ( 4.999999999999958256, -79.99999999999998579, 10.00000000000000000 ) ) ;
#230 = DIRECTION ( 'NONE',  ( -0.000000000000000000, -0.000000000000000000, -1.000000000000000000 ) ) ;
#231 = COLOUR_RGB ( '',0.7921568627450980005, 0.8196078431372548767, 0.9333333333333333481 ) ;
#232 = VERTEX_POINT ( 'NONE', #38 ) ;
#233 = LINE ( 'NONE', #325, #253 ) ;
#234 = CARTESIAN_POINT ( 'NONE',  ( 4.999999999999960032, -69.99999999999998579, 10.00000000000000000 ) ) ;
#235 = MECHANICAL_DESIGN_GEOMETRIC_PRESENTATION_REPRESENTATION (  '', ( #7 ), #289 ) ;
#236 = LINE ( 'NONE', #158, #262 ) ;
#237 = EDGE_CURVE ( 'NONE', #232, #246, #91, .T. ) ;
#238 = DIRECTION ( 'NONE',  ( 1.000000000000000000, 0.000000000000000000, 0.000000000000000000 ) ) ;
#239 = DIRECTION ( 'NONE',  ( 1.387778780781445922E-16, 1.000000000000000000, 0.000000000000000000 ) ) ;
#240 = DIRECTION ( 'NONE',  ( 1.000000000000000000, 0.000000000000000000, 0.000000000000000000 ) ) ;
#241 =( GEOMETRIC_REPRESENTATION_CONTEXT ( 3 ) GLOBAL_UNCERTAINTY_ASSIGNED_CONTEXT ( ( #299 ) ) GLOBAL_UNIT_ASSIGNED_CONTEXT ( ( #54, #296, #79 ) ) REPRESENTATION_CONTEXT ( 'NONE', 'WORKASPACE' ) );
#242 = CARTESIAN_POINT ( 'NONE',  ( 30.00000000000001421, -129.9999999999999716, 110.0000000000000142 ) ) ;
#243 = ORIENTED_EDGE ( 'NONE', *, *, #11, .T. ) ;
#244 = ORIENTED_EDGE ( 'NONE', *, *, #188, .T. ) ;
#245 = CARTESIAN_POINT ( 'NONE',  ( -5.000000000000041744, -79.99999999999998579, 10.00000000000000000 ) ) ;
#246 = VERTEX_POINT ( 'NONE', #44 ) ;
#247 = DIRECTION ( 'NONE',  ( 0.000000000000000000, -1.000000000000000000, 0.000000000000000000 ) ) ;
#248 = DIRECTION ( 'NONE',  ( -1.387778780781445922E-16, -1.000000000000000000, 0.000000000000000000 ) ) ;
#249 = UNCERTAINTY_MEASURE_WITH_UNIT (LENGTH_MEASURE( 1.000000000000000082E-05 ), #273, 'distance_accuracy_value', 'NONE');
#250 = VERTEX_POINT ( 'NONE', #245 ) ;
#251 = DIRECTION ( 'NONE',  ( -1.000000000000000000, -0.000000000000000000, -0.000000000000000000 ) ) ;
#252 = ADVANCED_FACE ( 'NONE', ( #313 ), #14, .F. ) ;
#253 = VECTOR ( 'NONE', #101, 100.0000000000000000 ) ;
#254 = LINE ( 'NONE', #271, #102 ) ;
#255 = ORIENTED_EDGE ( 'NONE', *, *, #61, .F. ) ;
#256 = CARTESIAN_POINT ( 'NONE',  ( -5.000000000000040856, -69.99999999999998579, 10.00000000000000000 ) ) ;
#257 = DIRECTION ( 'NONE',  ( -0.000000000000000000, -0.000000000000000000, -1.000000000000000000 ) ) ;
#258 = EDGE_CURVE ( 'NONE', #72, #127, #216, .T. ) ;
#259 = FACE_OUTER_BOUND ( 'NONE', #128, .T. ) ;
#260 = DIRECTION ( 'NONE',  ( -1.281026566875180510E-16, 1.000000000000000000, -0.000000000000000000 ) ) ;
#261 = PRODUCT_RELATED_PRODUCT_CATEGORY ( 'part', '', ( #83 ) ) ;
#262 = VECTOR ( 'NONE', #35, 100.0000000000000000 ) ;
#263 = CARTESIAN_POINT ( 'NONE',  ( -30.00000000000001421, 130.0000000000000284, 110.0000000000000142 ) ) ;
#264 = CARTESIAN_POINT ( 'NONE',  ( -30.00000000000001421, 130.0000000000000284, 0.000000000000000000 ) ) ;
#265 = SURFACE_SIDE_STYLE ('',( #63 ) ) ;
#266 = CARTESIAN_POINT ( 'NONE',  ( -29.99999999999998224, -129.9999999999999716, 110.0000000000000142 ) ) ;
#267 = VECTOR ( 'NONE', #260, 100.0000000000000000 ) ;
#268 = ADVANCED_FACE ( 'NONE', ( #45 ), #316, .F. ) ;
#269 = CARTESIAN_POINT ( 'NONE',  ( 0.000000000000000000, 0.000000000000000000, 10.00000000000000000 ) ) ;
#270 = DIRECTION ( 'NONE',  ( 1.000000000000000000, -0.000000000000000000, -0.000000000000000000 ) ) ;
#271 = CARTESIAN_POINT ( 'NONE',  ( -29.99999999999998224, -129.9999999999999716, 110.0000000000000142 ) ) ;
#272 = EDGE_LOOP ( 'NONE', ( #16, #298, #48, #10 ) ) ;
#273 =( LENGTH_UNIT ( ) NAMED_UNIT ( * ) SI_UNIT ( .CENTI., .METRE. ) );
#274 = ORIENTED_EDGE ( 'NONE', *, *, #107, .T. ) ;
#275 = DIRECTION ( 'NONE',  ( 1.000000000000000000, 0.000000000000000000, 0.000000000000000000 ) ) ;
#276 = ORIENTED_EDGE ( 'NONE', *, *, #305, .T. ) ;
#277 = VERTEX_POINT ( 'NONE', #266 ) ;
#278 = AXIS2_PLACEMENT_3D ( 'NONE', #211, #112, #240 ) ;
#279 = DIRECTION ( 'NONE',  ( -1.387778780781445922E-16, -1.000000000000000000, 0.000000000000000000 ) ) ;
#280 = DIRECTION ( 'NONE',  ( 0.000000000000000000, 0.000000000000000000, 1.000000000000000000 ) ) ;
#281 = ORIENTED_EDGE ( 'NONE', *, *, #228, .F. ) ;
#282 = EDGE_CURVE ( 'NONE', #250, #232, #197, .T. ) ;
#283 = DIRECTION ( 'NONE',  ( -1.000000000000000000, 0.000000000000000000, 0.000000000000000000 ) ) ;
#284 = DIRECTION ( 'NONE',  ( 0.000000000000000000, 1.000000000000000000, -0.000000000000000000 ) ) ;
#285 = FACE_OUTER_BOUND ( 'NONE', #41, .T. ) ;
#286 = PLANE ( 'NONE',  #278 ) ;
#287 = FILL_AREA_STYLE_COLOUR ( '', #231 ) ;
#288 = DIRECTION ( 'NONE',  ( -0.000000000000000000, -0.000000000000000000, -1.000000000000000000 ) ) ;
#289 =( GEOMETRIC_REPRESENTATION_CONTEXT ( 3 ) GLOBAL_UNCERTAINTY_ASSIGNED_CONTEXT ( ( #249 ) ) GLOBAL_UNIT_ASSIGNED_CONTEXT ( ( #273, #314, #40 ) ) REPRESENTATION_CONTEXT ( 'NONE', 'WORKASPACE' ) );
#290 = PRESENTATION_STYLE_ASSIGNMENT (( #168 ) ) ;
#291 = VERTEX_POINT ( 'NONE', #64 ) ;
#292 = DIRECTION ( 'NONE',  ( -1.000000000000000000, -1.281026566875180510E-16, 0.000000000000000000 ) ) ;
#293 = CARTESIAN_POINT ( 'NONE',  ( 4.999999999999960032, -69.99999999999998579, 0.000000000000000000 ) ) ;
#294 = VECTOR ( 'NONE', #163, 100.0000000000000000 ) ;
#295 = EDGE_LOOP ( 'NONE', ( #297, #243, #93, #177 ) ) ;
#296 =( NAMED_UNIT ( * ) PLANE_ANGLE_UNIT ( ) SI_UNIT ( $, .RADIAN. ) );
#297 = ORIENTED_EDGE ( 'NONE', *, *, #282, .T. ) ;
#298 = ORIENTED_EDGE ( 'NONE', *, *, #315, .F. ) ;
#299 = UNCERTAINTY_MEASURE_WITH_UNIT (LENGTH_MEASURE( 1.000000000000000082E-05 ), #54, 'distance_accuracy_value', 'NONE');
#300 = VERTEX_POINT ( 'NONE', #318 ) ;
#301 = PRODUCT_CONTEXT ( 'NONE', #196, 'mechanical' ) ;
#302 = CARTESIAN_POINT ( 'NONE',  ( 4.999999999999960032, -69.99999999999998579, 10.00000000000000000 ) ) ;
#303 = ORIENTED_EDGE ( 'NONE', *, *, #34, .F. ) ;
#304 = VECTOR ( 'NONE', #251, 100.0000000000000000 ) ;
#305 = EDGE_CURVE ( 'NONE', #20, #300, #173, .T. ) ;
#306 = CARTESIAN_POINT ( 'NONE',  ( 4.999999999999960032, -69.99999999999998579, 10.00000000000000000 ) ) ;
#307 = DIRECTION ( 'NONE',  ( 1.000000000000000000, -1.387778780781445922E-16, 0.000000000000000000 ) ) ;
#308 = DIRECTION ( 'NONE',  ( 0.000000000000000000, -0.000000000000000000, 1.000000000000000000 ) ) ;
#309 = AXIS2_PLACEMENT_3D ( 'NONE', #234, #284, #84 ) ;
#310 = CARTESIAN_POINT ( 'NONE',  ( -29.99999999999998224, -129.9999999999999716, 110.0000000000000142 ) ) ;
#311 = EDGE_CURVE ( 'NONE', #291, #70, #19, .T. ) ;
#312 = PLANE ( 'NONE',  #309 ) ;
#313 = FACE_OUTER_BOUND ( 'NONE', #329, .T. ) ;
#314 =( NAMED_UNIT ( * ) PLANE_ANGLE_UNIT ( ) SI_UNIT ( $, .RADIAN. ) );
#315 = EDGE_CURVE ( 'NONE', #28, #246, #203, .T. ) ;
#316 = PLANE ( 'NONE',  #160 ) ;
#317 = ORIENTED_EDGE ( 'NONE', *, *, #46, .F. ) ;
#318 = CARTESIAN_POINT ( 'NONE',  ( 4.999999999999958256, -79.99999999999998579, 0.000000000000000000 ) ) ;
#319 = CARTESIAN_POINT ( 'NONE',  ( -30.00000000000001421, 130.0000000000000284, 0.000000000000000000 ) ) ;
#320 = ORIENTED_EDGE ( 'NONE', *, *, #130, .F. ) ;
#321 = VECTOR ( 'NONE', #145, 100.0000000000000000 ) ;
#322 = CARTESIAN_POINT ( 'NONE',  ( 0.000000000000000000, 0.000000000000000000, 0.000000000000000000 ) ) ;
#323 = ORIENTED_EDGE ( 'NONE', *, *, #228, .T. ) ;
#324 = ORIENTED_EDGE ( 'NONE', *, *, #11, .F. ) ;
#325 = CARTESIAN_POINT ( 'NONE',  ( 4.999999999999960032, -69.99999999999998579, 10.00000000000000000 ) ) ;
#326 = PRODUCT_DEFINITION ( 'UNKNOWN', '', #139, #22 ) ;
#327 = VECTOR ( 'NONE', #26, 100.0000000000000000 ) ;
#328 = LINE ( 'NONE', #53, #219 ) ;
#329 = EDGE_LOOP ( 'NONE', ( #43, #126, #100, #121 ) ) ;
ENDSEC;
END-ISO-10303-21;
